<?xml version="1.0" encoding="UTF-8" standalone="no"?>
<!-- Created with Inkscape (http://www.inkscape.org/) -->

<svg
   xmlns:dc="http://purl.org/dc/elements/1.1/"
   xmlns:cc="http://creativecommons.org/ns#"
   xmlns:rdf="http://www.w3.org/1999/02/22-rdf-syntax-ns#"
   xmlns:svg="http://www.w3.org/2000/svg"
   xmlns="http://www.w3.org/2000/svg"
   xmlns:sodipodi="http://sodipodi.sourceforge.net/DTD/sodipodi-0.dtd"
   xmlns:inkscape="http://www.inkscape.org/namespaces/inkscape"
   width="800mm"
   height="433mm"
   viewBox="0 0 2834.6457 1534.252"
   id="svg6070"
   version="1.1"
   inkscape:version="0.91 r13725"
   sodipodi:docname="windwarningsign.svg"
   inkscape:export-filename="/home/geoffrey/Workspace/Thèmes&amp;chos/20150902_Presence-militaire-americaine-à-Okinawa/map_okinawa/img/pins/road.png"
   inkscape:export-xdpi="14.881844"
   inkscape:export-ydpi="14.881844">
  <defs
     id="defs6072" />
  <sodipodi:namedview
     id="base"
     pagecolor="#ffffff"
     bordercolor="#666666"
     borderopacity="1.0"
     inkscape:pageopacity="0.0"
     inkscape:pageshadow="2"
     inkscape:zoom="0.21459759"
     inkscape:cx="1286.4503"
     inkscape:cy="680.48691"
     inkscape:document-units="px"
     inkscape:current-layer="layer1"
     showgrid="false"
     fit-margin-top="0"
     fit-margin-left="0"
     fit-margin-right="0"
     fit-margin-bottom="0"
     inkscape:window-width="1916"
     inkscape:window-height="1035"
     inkscape:window-x="4"
     inkscape:window-y="1"
     inkscape:window-maximized="1" />
  <metadata
     id="metadata6075">
    <rdf:RDF>
      <cc:Work
         rdf:about="">
        <dc:format>image/svg+xml</dc:format>
        <dc:type
           rdf:resource="http://purl.org/dc/dcmitype/StillImage" />
        <dc:title></dc:title>
        <dc:creator>
          <cc:Agent>
            <dc:title>j4p4n</dc:title>
          </cc:Agent>
        </dc:creator>
        <cc:license
           rdf:resource="http://creativecommons.org/publicdomain/zero/1.0/" />
      </cc:Work>
      <cc:License
         rdf:about="http://creativecommons.org/publicdomain/zero/1.0/">
        <cc:permits
           rdf:resource="http://creativecommons.org/ns#Reproduction" />
        <cc:permits
           rdf:resource="http://creativecommons.org/ns#Distribution" />
        <cc:permits
           rdf:resource="http://creativecommons.org/ns#DerivativeWorks" />
      </cc:License>
    </rdf:RDF>
  </metadata>
  <g
     inkscape:label="Layer 1"
     inkscape:groupmode="layer"
     id="layer1"
     transform="translate(1020.7816,424.68245)">
    <g
       id="g7420"
       transform="translate(41.938962,-32.619192)">
      <g
         transform="matrix(9,0,0,9,-2616.654,-3236.163)"
         id="g7403">
        <path
           style="fill:#f3e717;fill-opacity:1;fill-rule:evenodd;stroke:#000000;stroke-width:11.85000038;stroke-linecap:butt;stroke-linejoin:miter;stroke-miterlimit:4;stroke-dasharray:none;stroke-opacity:1"
           d="m 183.24531,468.59909 c -0.0434,-2.8544 1.98197,-6.0011 3.97791,-7.9554 L 321.01607,329.64253 c 2.0382,-1.99567 5.25609,-2.86117 7.94291,-2.83005 2.6868,0.0312 6.03072,1.06506 7.91853,2.89147 l 136.76773,132.32 c 1.96684,1.90288 3.29205,4.99566 3.22821,7.79505 -0.0516,2.26562 -1.04646,7.14827 -3.26825,7.11508 -96.12217,-1.36908 -190.07231,0.0906 -286.39643,-0.74986 -2.49861,-0.0218 -3.92474,-5.03458 -3.96346,-7.58513 z"
           id="path6089"
           inkscape:connector-curvature="0"
           sodipodi:nodetypes="ssszsssccs" />
        <path
           sodipodi:nodetypes="cc"
           style="fill:none;fill-rule:evenodd;stroke:#000000;stroke-width:3.55555558;stroke-linecap:round;stroke-linejoin:miter;stroke-miterlimit:4;stroke-dasharray:none;stroke-opacity:1"
           d="m 329.99686,379.0597 38.17367,-18.9648"
           id="path6631"
           inkscape:connector-curvature="0" />
        <path
           inkscape:connector-curvature="0"
           id="path6635"
           d="m 327.51473,390.96157 23.06428,-11.02588"
           style="fill:none;fill-rule:evenodd;stroke:#000000;stroke-width:2.88888884;stroke-linecap:round;stroke-linejoin:miter;stroke-miterlimit:4;stroke-dasharray:none;stroke-opacity:1"
           sodipodi:nodetypes="cc" />
        <path
           sodipodi:nodetypes="cc"
           style="fill:none;fill-rule:evenodd;stroke:#000000;stroke-width:3.55555558;stroke-linecap:round;stroke-linejoin:miter;stroke-miterlimit:4;stroke-dasharray:none;stroke-opacity:1"
           d="m 356.5603,376.82187 6.55023,-3.17562"
           id="path6637"
           inkscape:connector-curvature="0" />
        <path
           inkscape:connector-curvature="0"
           id="path6639"
           d="m 350.21682,397.65298 18.38552,-9.24099"
           style="fill:none;fill-rule:evenodd;stroke:#000000;stroke-width:3.01111102;stroke-linecap:round;stroke-linejoin:miter;stroke-miterlimit:4;stroke-dasharray:none;stroke-opacity:1"
           sodipodi:nodetypes="cc" />
        <path
           sodipodi:nodetypes="cc"
           style="fill:none;fill-rule:evenodd;stroke:#000000;stroke-width:3.55555558;stroke-linecap:round;stroke-linejoin:miter;stroke-miterlimit:4;stroke-dasharray:none;stroke-opacity:1"
           d="m 365.48419,398.38083 10.73485,-5.85669"
           id="path6641"
           inkscape:connector-curvature="0" />
        <g
           id="g6670"
           transform="matrix(0.85516413,1.9424338,1.2871253,-1.29055,-542.29539,305.06448)">
          <path
             inkscape:connector-curvature="0"
             id="path6645"
             d="m 351.91719,410.06926 -0.92804,13.58638 17.85014,22.72442 0.44643,15.26786"
             style="fill:none;fill-rule:evenodd;stroke:#000000;stroke-width:7.0406208;stroke-linecap:round;stroke-linejoin:round;stroke-miterlimit:4;stroke-dasharray:none;stroke-opacity:1"
             sodipodi:nodetypes="cccc" />
          <ellipse
             ry="8.9961367"
             rx="7.5687342"
             cy="401.76364"
             cx="301.05942"
             id="path6647"
             style="opacity:1;fill:#000000;fill-opacity:1;stroke:none;stroke-width:4.5999999;stroke-linecap:round;stroke-miterlimit:4;stroke-dasharray:none;stroke-opacity:1"
             transform="matrix(0.98910586,0.147206,0.1311343,0.99136461,0,0)" />
          <path
             sodipodi:nodetypes="cccccc"
             inkscape:connector-curvature="0"
             id="path6664"
             d="m 353.79674,430.45149 14.1106,-9.50582 4.24364,5.9597 5.60489,8.47288 -14.10095,6.0942 z"
             style="fill:#000000;fill-opacity:1;fill-rule:evenodd;stroke:none;stroke-width:1px;stroke-linecap:butt;stroke-linejoin:miter;stroke-opacity:1" />
        </g>
        <path
           style="opacity:1;fill:#000000;fill-opacity:1;fill-rule:evenodd;stroke:none;stroke-width:8;stroke-linecap:round;stroke-linejoin:round;stroke-miterlimit:4;stroke-dasharray:none;stroke-opacity:1"
           d="m 296.97876,374.35127 c -9.42439,1.43331 -15.82486,10.74466 -14.2957,20.79728 0.21922,1.43936 0.60509,2.83556 1.12633,4.17007 -1.47736,0.76322 -3.37278,3.02243 -4.78277,7.5602 0,0 0.39503,1.47605 1.73262,1.40494 3.25852,-0.80306 2.31615,-1.18945 6.48243,-2.75334 12.64036,-6.44998 20.50771,-13.57639 26.62161,-23.27799 -3.80738,-5.8211 -10.36076,-8.88776 -16.88452,-7.90116 z"
           id="path7371"
           inkscape:connector-curvature="0"
           sodipodi:nodetypes="cccccccc" />
        <g
           style="font-style:normal;font-weight:normal;font-size:40px;line-height:125%;font-family:sans-serif;letter-spacing:0px;word-spacing:0px;fill:#000000;fill-opacity:1;stroke:none;stroke-width:1px;stroke-linecap:butt;stroke-linejoin:miter;stroke-opacity:1"
           id="text7388">
          <path
             sodipodi:type="spiral"
             style="fill:none;fill-rule:evenodd;stroke:#000000;stroke-width:3.5999999;stroke-linecap:round;stroke-linejoin:miter;stroke-miterlimit:4;stroke-dasharray:none;stroke-opacity:1"
             id="path7397"
             sodipodi:cx="247.46394"
             sodipodi:cy="357.22406"
             sodipodi:expansion="7.6100001"
             sodipodi:revolution="6.7728815"
             sodipodi:radius="11.861481"
             sodipodi:argument="-68.053314"
             sodipodi:t0="0.73249489"
             d="m 248.22335,358.03356 c -0.4222,0.64742 -1.32909,0.70004 -1.9362,0.29447 -0.92242,-0.61621 -0.99267,-1.9172 -0.40019,-2.78497 0.88325,-1.29363 2.71966,-1.38603 3.9402,-0.53598 1.7882,1.24538 1.90806,3.79947 0.70834,5.49114 -1.72991,2.43929 -5.23417,2.5928 -7.54744,0.92476 -3.28706,-2.37022 -3.48134,-7.11832 -1.19378,-10.24256 3.20687,-4.37977 9.56624,-4.62294 13.73767,-1.52512 1.21031,0.8988 2.23324,2.04091 3.0108,3.33145"
             transform="matrix(0.72802078,0.68555506,0.68555506,-0.72802078,-100.68866,458.79717)" />
          <path
             transform="matrix(0.73643645,-0.10394482,0.14567783,-0.56458837,89.765963,614.13309)"
             d="m 248.22335,358.03356 c -0.4222,0.64742 -1.32909,0.70004 -1.9362,0.29447 -0.92242,-0.61621 -0.99267,-1.91721 -0.40019,-2.78497 0.88325,-1.29363 2.71966,-1.38603 3.9402,-0.53598 1.7882,1.24538 1.90806,3.79947 0.70834,5.49115 -1.72991,2.43928 -5.23418,2.59279 -7.54745,0.92475 -3.28706,-2.37023 -3.48133,-7.11832 -1.19377,-10.24257 2.84215,-3.88166 8.32639,-4.58833 12.42046,-2.36628"
             sodipodi:t0="0.7417168"
             sodipodi:argument="-68.053314"
             sodipodi:radius="10.784255"
             sodipodi:revolution="6.688673"
             sodipodi:expansion="7.6100001"
             sodipodi:cy="357.22406"
             sodipodi:cx="247.46394"
             id="path7399"
             style="fill:none;fill-rule:evenodd;stroke:#000000;stroke-width:5.54388952;stroke-linecap:round;stroke-linejoin:miter;stroke-miterlimit:4;stroke-dasharray:none;stroke-opacity:1"
             sodipodi:type="spiral" />
          <path
             sodipodi:type="spiral"
             style="fill:none;fill-rule:evenodd;stroke:#000000;stroke-width:5.54388952;stroke-linecap:round;stroke-linejoin:miter;stroke-miterlimit:4;stroke-dasharray:none;stroke-opacity:1"
             id="path7401"
             sodipodi:cx="247.46394"
             sodipodi:cy="357.22406"
             sodipodi:expansion="7.6100001"
             sodipodi:revolution="6.688673"
             sodipodi:radius="10.784255"
             sodipodi:argument="-68.053314"
             sodipodi:t0="0.7417168"
             d="m 248.22335,358.03356 c -0.4222,0.64742 -1.32909,0.70004 -1.9362,0.29447 -0.92242,-0.61621 -0.99267,-1.91721 -0.40019,-2.78497 0.88325,-1.29363 2.71966,-1.38603 3.9402,-0.53598 1.7882,1.24538 1.90806,3.79947 0.70834,5.49115 -1.72991,2.43928 -5.23418,2.59279 -7.54745,0.92475 -3.28706,-2.37023 -3.48133,-7.11832 -1.19377,-10.24257 2.84215,-3.88166 8.32639,-4.58833 12.42046,-2.36628"
             transform="matrix(0.81313596,-0.11039709,0.16085011,-0.5996346,88.977291,634.22084)" />
        </g>
      </g>
    </g>
  </g>
</svg>
